:FULLY-SPECIFIED
:FORCE-ALL-JOINTS-BE-3DOF
:DEGREES
306
root -0.360248 15.4157 -36.3014 58.7503 56.2962 51.7845
lfemur -22.877 22.3523 -18.2557
ltibia 68.6363 0 0
lfoot -27.6981 31.6744 0
ltoes 6.55073 0 0
rfemur -37.0074 -10.8817 8.08396
rtibia 44.0807 0 0
rfoot 0.921321 -10.7121 0
rtoes -11.2115 0 0
lowerback 15.2027 1.13913 -0.460298
upperback -2.62522 1.66149 2.99119
thorax -11.2745 0.877168 3.14583
lowerneck -5.97455 5.46321 1.95208
upperneck 5.70328 7.78774 -7.42659
head 3.43568 3.68095 -2.1436
lclavicle -3.8595e-14 -2.37185e-14 0
lhumerus -27.4362 -30.632 91.5497
lradius 116.703 0 0
lwrist 47.7303 0 0
lhand -20.0929 50.4682 0
lfingers 7.12502 0 0
lthumb 6.25076 80.3813 0
rclavicle -3.8595e-14 -2.37185e-14 0
rhumerus -14.6179 36.9346 -87.2864
rradius 92.2612 0 0
rwrist -31.6599 0 0
rhand 30.2436 -23.787 0
rfingers 7.12502 0 0
rthumb 53.1687 -37.37 0
307
root -0.258572 15.4106 -36.255 61.407 57.517 54.9465
lfemur -21.8999 21.4423 -18.2868
ltibia 67.8694 0 0
lfoot -27.8118 31.461 0
ltoes 5.8293 0 0
rfemur -37.1778 -10.1252 7.54335
rtibia 43.0597 0 0
rfoot 2.24604 -10.0389 0
rtoes -9.82298 0 0
lowerback 15.2628 1.09298 -0.857006
upperback -2.55653 1.51909 2.96526
thorax -11.2303 0.831503 3.37485
lowerneck -6.04369 5.06504 1.68321
upperneck 5.8142 7.26294 -7.17212
head 3.45926 3.42298 -2.04765
lclavicle -3.70459e-14 -2.3609e-14 0
lhumerus -28.2188 -30.8852 93.0025
lradius 115.855 0 0
lwrist 48.0276 0 0
lhand -20.3015 50.009 0
lfingers 7.12502 0 0
lthumb 6.04948 79.9281 0
rclavicle -3.70459e-14 -2.3609e-14 0
rhumerus -12.4019 36.1538 -86.5502
rradius 90.8424 0 0
rwrist -30.3485 0 0
rhand 28.7482 -24.1361 0
rfingers 7.12502 0 0
rthumb 51.7942 -38.3673 0
308
root -0.155496 15.4053 -36.2076 64.074 58.7142 58.1206
lfemur -20.9076 20.5116 -18.3092
ltibia 67.0749 0 0
lfoot -27.9221 31.2299 0
ltoes 5.08595 0 0
rfemur -37.3518 -9.36718 7.00507
rtibia 42.0535 0 0
rfoot 3.55148 -9.34738 0
rtoes -8.42264 0 0
lowerback 15.3165 1.04869 -1.25947
upperback -2.4881 1.37828 2.93661
thorax -11.1834 0.786882 3.60399
lowerneck -6.11045 4.6555 1.40546
upperneck 5.926 6.72242 -6.90445
head 3.48284 3.15739 -1.9469
lclavicle -3.54456e-14 -2.34615e-14 0
lhumerus -29.0185 -31.1187 94.4622
lradius 114.946 0 0
lwrist 48.2811 0 0
lhand -20.5122 49.5343 0
lfingers 7.12502 0 0
lthumb 5.84601 79.4593 0
rclavicle -3.54456e-14 -2.34615e-14 0
rhumerus -10.1677 35.3349 -85.7982
rradius 89.3575 0 0
rwrist -28.9938 0 0
rhand 27.2009 -24.4912 0
rfingers 7.12502 0 0
rthumb 50.3714 -39.3874 0
309
root -0.0506451 15.3998 -36.159 66.7544 59.8896 61.3086
lfemur -19.9003 19.562 -18.3232
ltibia 66.2537 0 0
lfoot -28.0285 30.9841 0
ltoes 4.32206 0 0
rfemur -37.5315 -8.61016 6.47017
rtibia 41.0667 0 0
rfoot 4.83516 -8.63873 0
rtoes -7.01326 0 0
lowerback 15.3639 1.00661 -1.66723
upperback -2.42004 1.23963 2.90514
thorax -11.1337 0.743549 3.8327
lowerneck -6.17421 4.23506 1.11915
upperneck 6.03791 6.16679 -6.62398
head 3.50622 2.88445 -1.84151
lclavicle -3.3798e-14 -2.32736e-14 0
lhumerus -29.836 -31.3332 95.9257
lradius 113.983 0 0
lwrist 48.4958 0 0
lhand -20.7236 49.0465 0
lfingers 7.12502 0 0
lthumb 5.64199 78.9772 0
rclavicle -3.3798e-14 -2.32736e-14 0
rhumerus -7.91595 34.4798 -85.0313
rradius 87.8099 0 0
rwrist -27.5983 0 0
rhand 25.6059 -24.8518 0
rfingers 7.12502 0 0
rthumb 48.9041 -40.4281 0
310
root 0.0563577 15.394 -36.1093 69.4513 61.0449 64.512
lfemur -18.878 18.5955 -18.3288
ltibia 65.4065 0 0
lfoot -28.1307 30.7267 0
ltoes 3.53898 0 0
rfemur -37.7195 -7.85683 5.93968
rtibia 40.1037 0 0
rfoot 6.09457 -7.91415 0
rtoes -5.59768 0 0
lowerback 15.4048 0.967073 -2.07982
upperback -2.35243 1.10375 2.87073
thorax -11.0817 0.70175 4.06047
lowerneck -6.23436 3.80419 0.824624
upperneck 6.14918 5.59662 -6.33109
head 3.52923 2.60446 -1.73163
lclavicle -3.21074e-14 -2.30436e-14 0
lhumerus -30.672 -31.5295 97.3901
lradius 112.975 0 0
lwrist 48.6768 0 0
lhand -20.9338 48.5477 0
lfingers 7.12502 0 0
lthumb 5.43909 78.484 0
rclavicle -3.21074e-14 -2.30436e-14 0
rhumerus -5.64734 33.5903 -84.2506
rradius 86.2035 0 0
rwrist -26.1646 0 0
rhand 23.9676 -25.2176 0
rfingers 7.12502 0 0
rthumb 47.3963 -41.4868 0
311
root 0.165888 15.3876 -36.0585 72.168 62.182 67.7328
lfemur -17.841 17.6139 -18.3261
ltibia 64.5342 0 0
lfoot -28.2282 30.4607 0
ltoes 2.73812 0 0
rfemur -37.9181 -7.10981 5.41465
rtibia 39.1691 0 0
rfoot 7.32721 -7.17486 0
rtoes -4.17873 0 0
lowerback 15.4394 0.930424 -2.49677
upperback -2.28539 0.971212 2.83327
thorax -11.0273 0.661732 4.28677
lowerneck -6.2903 3.36337 0.522206
upperneck 6.25908 5.01253 -6.02617
head 3.55168 2.31769 -1.6174
lclavicle -3.03777e-14 -2.27693e-14 0
lhumerus -31.5271 -31.7083 98.8525
lradius 111.929 0 0
lwrist 48.8293 0 0
lhand -21.1411 48.0403 0
lfingers 7.12502 0 0
lthumb 5.23894 77.9818 0
rclavicle -3.03777e-14 -2.27693e-14 0
rhumerus -3.36259 32.6685 -83.4568
rradius 84.5419 0 0
rwrist -24.6955 0 0
rhand 22.2904 -25.5879 0
rfingers 7.12502 0 0
rthumb 45.852 -42.5612 0
312
root 0.278321 15.3805 -36.0065 74.9076 63.3026 70.9727
lfemur -16.7894 16.6194 -18.3153
ltibia 63.6376 0 0
lfoot -28.3205 30.189 0
ltoes 1.92083 0 0
rfemur -38.1295 -6.37178 4.89611
rtibia 38.2674 0 0
rfoot 8.53057 -6.42203 0
rtoes -2.75924 0 0
lowerback 15.4676 0.897 -2.91763
upperback -2.219 0.842608 2.79263
thorax -10.9708 0.62374 4.51109
lowerneck -6.34141 2.91308 0.21223
upperneck 6.36685 4.41511 -5.70961
head 3.57341 2.02443 -1.49897
lclavicle -2.8613e-14 -2.24487e-14 0
lhumerus -32.402 -31.8703 100.31
lradius 110.854 0 0
lwrist 48.9582 0 0
lhand -21.3438 47.5264 0
lfingers 7.12502 0 0
lthumb 5.0432 77.473 0
rclavicle -2.8613e-14 -2.24487e-14 0
rhumerus -1.06241 31.7162 -82.6509
rradius 82.8286 0 0
rwrist -23.1936 0 0
rhand 20.5785 -25.9622 0
rfingers 7.12502 0 0
rthumb 44.2753 -43.6488 0
313
root 0.394034 15.3726 -35.9534 77.6733 64.4085 74.2333
lfemur -15.7234 15.6137 -18.2965
ltibia 62.7176 0 0
lfoot -28.4073 29.9147 0
ltoes 1.08849 0 0
rfemur -38.3563 -5.64535 4.38513
rtibia 37.403 0 0
rfoot 9.70217 -5.65689 0
rtoes -1.34205 0 0
lowerback 15.4894 0.867141 -3.34192
upperback -2.15337 0.718526 2.7487
thorax -10.9124 0.588022 4.73291
lowerneck -6.38709 2.45379 -0.10497
upperneck 6.47174 3.80496 -5.38179
head 3.59422 1.72496 -1.37649
lclavicle -2.68174e-14 -2.20798e-14 0
lhumerus -33.2975 -32.0162 101.759
lradius 109.757 0 0
lwrist 49.0688 0 0
lhand -21.5403 47.0084 0
lfingers 7.12502 0 0
lthumb 4.85352 76.9597 0
rclavicle -2.68174e-14 -2.20798e-14 0
rhumerus 1.25247 30.7353 -81.8339
rradius 81.0675 0 0
rwrist -21.6616 0 0
rhand 18.8364 -26.3402 0
rfingers 7.12502 0 0
rthumb 42.6699 -44.7471 0
